<svg xmlns="http://www.w3.org/2000/svg" viewBox="0 0 64 64" width="64" height="64">
  <rect x="0.5" y="0.5" width="63" height="63" rx="12.5" fill="#E1E4DC" stroke="#C9CEBF" stroke-width="1"/>
  <g transform="translate(5.906 47.606) scale(0.04550 -0.04550)" fill="#8E2B2B">
    <path d="M68 698H378Q462 698 502.5 649.0Q543 600 543 519Q543 475 532.5 446.5Q522 418 505.5 401.5Q489 385 468.0 377.5Q447 370 425 369V353Q449 353 474.5 345.0Q500 337 521.0 318.5Q542 300 555.0 270.5Q568 241 568 199Q568 158 557.0 121.5Q546 85 525.0 58.0Q504 31 474.0 15.5Q444 0 406 0H68ZM211 121H366Q390 121 404.5 135.0Q419 149 419 182V232Q419 265 404.5 279.0Q390 293 366 293H211ZM211 411H343Q368 411 382.0 425.0Q396 439 396 471V517Q396 549 382.0 563.0Q368 577 343 577H211Z"/>
    <path transform="translate(602 0)" d="M268 -12Q160 -12 95.5 56.5Q31 125 31 262Q31 402 87.5 469.5Q144 537 254 537Q364 537 420.5 469.5Q477 402 477 262V228H177V195Q177 151 204.0 124.5Q231 98 278 98Q317 98 344.5 115.5Q372 133 395 164L466 81Q434 38 384.5 13.0Q335 -12 268 -12ZM254 432Q177 432 177 342V310H331V342Q331 432 254 432Z"/>
  </g>
</svg>
